#N canvas 5 28 1230 872 10;
#X obj 21 110 midiin;
#X obj 21 142 pack f f;
#X obj 21 173 print MIDI;
#X floatatom 98 27 0 0 0 0 - - -;
#X obj 49 3 notein;
#X floatatom 35 25 0 0 0 0 - - -;
#X floatatom 100 1 0 0 0 0 - - -;
#X floatatom 813 44 0 0 0 0 - - -;
#X floatatom 777 50 0 0 0 0 - - -;
#X floatatom 849 8 0 0 0 0 - - -;
#X obj 799 12 ctlin;
#X text 731 102 value;
#X text 127 3 channel;
#X text 124 29 velocity;
#X obj 526 690 dac~;
#X obj 538 615 LDgain~;
#X obj 537 574 *~;
#X obj 614 499 vline~;
#N canvas 5 28 1230 847 osc1 0;
#X obj 121 34 inlet;
#X obj 248 37 inlet;
#X text 120 15 freq;
#X text 248 19 wave select;
#X obj 122 104 phasor~;
#X obj 122 131 *~ 2048;
#X obj 122 154 tabread4~ osctable1;
#X obj 138 256 outlet~;
#N canvas 5 28 1230 847 osctab1 0;
#N canvas 5 28 1230 847 (subpatch) 0;
#X array osctable1 2051 float 2;
#X coords 0 1 2051 -1 200 140 1 0 0;
#X restore 632 528 graph;
#X msg 175 300 \; osctable1 sinesum 2051 1 0.5 0.333333 0.25 0.2 0.166667
0.142857 0.125 0.111111 0.1 0.090909 0.0833333 0.076923;
#X msg 43 180 \; osctable1 normalize 1;
#X text 266 223 sinewave;
#X msg 174 380 \; osctable1 sinesum 2051 1 0 0.333333 0 0.2 0 0.142857
0 0.111111 0 0.090909 0 0.076923;
#X obj 119 36 inlet;
#X floatatom 120 78 5 0 0 0 - - -;
#X obj 189 180 sel 0 1 2 3;
#X obj 123 106 t b f;
#X msg 172 242 \; osctable1 sinesum 2051 1;
#X text 351 358 Square with 13 harmonics;
#X text 343 274 Sawtooth with 13 harmonics;
#X text 357 445 Triangle with 13 harmonics;
#X msg 176 467 \; osctable1 sinesum 2051 1 0 -0.111111 0 0.04 0 -0.0204082
0 0.0123457 0 -0.00826446 0 0.00591716;
#X connect 5 0 6 0;
#X connect 6 0 8 0;
#X connect 7 0 9 0;
#X connect 7 1 1 0;
#X connect 7 2 4 0;
#X connect 7 3 13 0;
#X connect 8 0 2 0;
#X connect 8 1 7 0;
#X restore 246 72 pd osctab1;
#X connect 0 0 4 0;
#X connect 1 0 8 0;
#X connect 4 0 5 0;
#X connect 5 0 6 0;
#X connect 6 0 7 0;
#X restore 125 441 pd osc1;
#N canvas 20 23 845 905 dbenv 0;
#X obj 134 176 outlet~;
#X obj 133 145 dbtorms~;
#X obj 133 124 +~ 40;
#X text 175 104 range in dB;
#X text 178 123 min in dB;
#X obj 132 103 *~ 60;
#X obj 132 75 inlet~;
#X connect 1 0 0 0;
#X connect 2 0 1 0;
#X connect 5 0 2 0;
#X connect 6 0 5 0;
#X restore 614 524 pd dbenv;
#X obj 614 475 LDadsr 50 200 0.7 500;
#X obj 336 501 LDbiquadLPF 400 8;
#X obj 388 387 hsl 128 15 0 127 0 0 empty empty empty -2 -8 0 10 -262144
-1 -1 0 1;
#X obj 385 411 mtof;
#X floatatom 385 433 5 0 0 0 - - -;
#X text 389 370 filter fc;
#X msg 385 453 \$1 50;
#X obj 385 474 line;
#X text 670 500 envelope gate (on/off);
#X obj 35 52 send note;
#X obj 326 78 sel 0 64;
#X obj 612 384 receive on;
#X floatatom 874 196 5 0 0 0 - - -;
#X obj 928 123 bang;
#X floatatom 874 253 8 0 0 1 ATTACK_VALUE - -;
#X obj 873 223 expr pow($i1 \, 2);
#X obj 874 285 s attack;
#X obj 642 421 r attack;
#X floatatom 968 190 5 0 0 0 - - -;
#X obj 986 132 bang;
#X floatatom 1015 253 8 0 0 1 DECAY_VALUE - -;
#X obj 1014 223 expr pow($i1 \, 2);
#X obj 1015 288 s decay;
#X obj 674 443 r decay;
#X msg 874 171 set \$1;
#X msg 1025 162 set \$1;
#X obj 613 434 tgl 15 0 empty empty empty 17 7 0 10 -262144 -1 -1 0
1;
#X obj 327 153 delay;
#X text 82 228 number of semitones up from the base pitch;
#X obj 126 379 mtof;
#X floatatom 124 408 5 0 0 0 - - -;
#X floatatom 125 290 5 0 0 0 - - -;
#X floatatom 1159 549 5 0 0 0 - - -;
#X obj 1158 586 sel 33 34 35 36;
#X obj 1172 654 69;
#X obj 1249 655 60;
#X obj 1183 718 s key;
#X text 85 203 button # are 38 - 45 for different pentatonics;
#X floatatom 1318 531 5 0 0 0 - - -;
#X obj 1318 592 sel 38 39 40 41 42 43 44 45;
#X obj 1304 652 0;
#X obj 1334 652 2;
#X obj 1361 652 4;
#X obj 1389 653 5;
#X obj 1418 653 7;
#X obj 1447 653 9;
#X obj 1477 656 11;
#X obj 1507 657 12;
#X obj 1351 728 s harmonic;
#X text 1146 476 set the key;
#X text 1291 471 set the scale degree;
#X floatatom 126 351 5 0 0 0 - - -;
#X obj 986 575 sel 1 5 9 13;
#X obj 935 660 0;
#X obj 979 660 1;
#X obj 1021 658 2;
#X obj 1061 660 3;
#X floatatom 986 537 5 0 0 0 - - -;
#X obj 985 505 r note;
#X obj 1158 507 r note;
#X obj 1318 499 r note;
#X obj 1007 717 s waveform;
#X obj 176 414 r waveform;
#X text 946 477 change the waveform;
#X msg 1121 643 62;
#X obj 1119 619 bang;
#X floatatom 280 320 5 0 0 0 - - -;
#X obj 125 321 +;
#X obj 99 51 send velocity;
#X text 314 17 on off 'switch';
#X obj 329 47 r velocity;
#X obj 237 254 r velocity;
#X obj 237 286 sel 0 64;
#X obj 124 264 r harmonic;
#X obj 295 297 r key;
#X floatatom 198 338 5 0 0 0 - - -;
#X obj 231 366 delay;
#X obj 290 369 r decay;
#X text 318 255 SET A WAVEFORM BY PRESSING THE BUTTONS TO HEAR NOISE
;
#X obj 1207 652 67;
#X obj 721 549 r note;
#X obj 720 577 sel 37;
#X obj 777 76 send cc_value;
#X obj 1024 131 r cc_value;
#X obj 857 124 r cc_value;
#X obj 962 59 sel 21 25 29;
#X text 609 358 on(1)/off(0);
#X obj 353 118 send on;
#X obj 427 38 r attack;
#X floatatom 428 63 5 0 0 0 - - -;
#X obj 484 38 r decay;
#X floatatom 484 64 5 0 0 0 - - -;
#X obj 450 122 +;
#X floatatom 450 152 5 0 0 0 - - -;
#X obj 429 99 f;
#X obj 481 98 t b f;
#X msg 720 602 -100;
#X msg 657 578 -20;
#X obj 384 345 r filter_val;
#X floatatom 1098 148 5 0 0 0 - - -;
#X obj 1152 75 bang;
#X floatatom 1098 168 8 0 0 1 FILTER_VALUE - -;
#X msg 1098 123 set \$1;
#X obj 1081 76 r cc_value;
#X obj 1098 190 s filter_val;
#X text 838 43 cc button #;
#X text 26 598 Rachael Hazlett;
#X text 125 597 Alice Clair;
#X text 27 576 MUSI 4610 - MIDI and Subtractive Synthesis;
#X obj 648 549 loadbang;
#X connect 0 0 1 0;
#X connect 0 1 1 1;
#X connect 1 0 2 0;
#X connect 3 0 88 0;
#X connect 4 0 5 0;
#X connect 4 1 3 0;
#X connect 4 2 6 0;
#X connect 5 0 29 0;
#X connect 7 0 105 0;
#X connect 8 0 102 0;
#X connect 10 0 8 0;
#X connect 10 1 7 0;
#X connect 10 2 9 0;
#X connect 15 0 14 0;
#X connect 15 0 14 1;
#X connect 16 0 15 0;
#X connect 17 0 19 0;
#X connect 18 0 21 0;
#X connect 19 0 16 1;
#X connect 20 0 17 0;
#X connect 21 0 16 0;
#X connect 22 0 23 0;
#X connect 23 0 24 0;
#X connect 24 0 26 0;
#X connect 26 0 27 0;
#X connect 27 0 21 1;
#X connect 30 0 47 0;
#X connect 30 1 107 0;
#X connect 31 0 46 0;
#X connect 32 0 35 0;
#X connect 33 0 32 0;
#X connect 33 0 35 0;
#X connect 33 0 44 0;
#X connect 34 0 36 0;
#X connect 35 0 34 0;
#X connect 37 0 20 1;
#X connect 38 0 41 0;
#X connect 39 0 38 0;
#X connect 39 0 41 0;
#X connect 39 0 45 0;
#X connect 40 0 42 0;
#X connect 41 0 40 0;
#X connect 43 0 20 2;
#X connect 44 0 32 0;
#X connect 45 0 38 0;
#X connect 46 0 20 0;
#X connect 47 0 107 0;
#X connect 49 0 50 0;
#X connect 50 0 18 0;
#X connect 51 0 87 0;
#X connect 52 0 53 0;
#X connect 53 0 85 0;
#X connect 53 1 54 0;
#X connect 53 2 99 0;
#X connect 53 3 55 0;
#X connect 54 0 56 0;
#X connect 55 0 56 0;
#X connect 58 0 59 0;
#X connect 59 0 60 0;
#X connect 59 1 61 0;
#X connect 59 2 62 0;
#X connect 59 3 63 0;
#X connect 59 4 64 0;
#X connect 59 5 65 0;
#X connect 59 6 66 0;
#X connect 59 7 67 0;
#X connect 60 0 68 0;
#X connect 61 0 68 0;
#X connect 62 0 68 0;
#X connect 63 0 68 0;
#X connect 64 0 68 0;
#X connect 65 0 68 0;
#X connect 66 0 68 0;
#X connect 67 0 68 0;
#X connect 71 0 49 0;
#X connect 72 0 73 0;
#X connect 72 1 74 0;
#X connect 72 2 75 0;
#X connect 72 3 76 0;
#X connect 73 0 81 0;
#X connect 74 0 81 0;
#X connect 75 0 81 0;
#X connect 76 0 81 0;
#X connect 77 0 72 0;
#X connect 78 0 77 0;
#X connect 79 0 52 0;
#X connect 80 0 58 0;
#X connect 82 0 18 1;
#X connect 84 0 56 0;
#X connect 85 0 84 0;
#X connect 86 0 87 1;
#X connect 87 0 71 0;
#X connect 90 0 30 0;
#X connect 91 0 92 0;
#X connect 92 0 96 0;
#X connect 92 1 86 0;
#X connect 93 0 51 0;
#X connect 94 0 86 0;
#X connect 95 0 87 1;
#X connect 96 0 95 0;
#X connect 97 0 96 1;
#X connect 99 0 56 0;
#X connect 100 0 101 0;
#X connect 101 0 116 0;
#X connect 103 0 45 0;
#X connect 104 0 44 0;
#X connect 105 0 33 0;
#X connect 105 1 39 0;
#X connect 105 2 120 0;
#X connect 108 0 109 0;
#X connect 109 0 114 0;
#X connect 110 0 111 0;
#X connect 111 0 115 0;
#X connect 112 0 113 0;
#X connect 113 0 47 1;
#X connect 114 0 112 0;
#X connect 115 0 114 0;
#X connect 115 1 112 1;
#X connect 116 0 15 1;
#X connect 117 0 15 1;
#X connect 118 0 22 0;
#X connect 119 0 121 0;
#X connect 120 0 119 0;
#X connect 120 0 122 0;
#X connect 121 0 124 0;
#X connect 122 0 119 0;
#X connect 123 0 122 0;
#X connect 129 0 117 0;
