#N canvas 0 23 1268 905 10;
#X obj 192 70 midiin;
#X obj 192 102 pack f f;
#X obj 192 133 print MIDI;
#X floatatom 345 113 0 0 0 0 - - -;
#X obj 326 69 notein;
#X floatatom 326 139 0 0 0 0 - - -;
#X floatatom 365 92 0 0 0 0 - - -;
#X text 358 138 note#;
#X floatatom 520 112 0 0 0 0 - - -;
#X floatatom 494 137 0 0 0 0 - - -;
#X floatatom 536 90 0 0 0 0 - - -;
#X obj 504 67 ctlin;
#X text 448 139 value;
#X text 555 111 cc#;
#X text 563 92 channel;
#X text 398 93 channel;
#X text 379 114 velocity;
#X text 413 21 Lab3 - MIDI hands on \, and Subtractive Synthesis;
#X obj 367 603 dac~;
#X obj 366 544 LDgain~;
#X obj 225 600 LDoscope2;
#X obj 339 650 LDspecscope;
#X obj 348 524 *~;
#X obj 428 420 vline~;
#X obj 121 280 mtof;
#N canvas 20 50 763 764 osc1 0;
#X obj 121 34 inlet;
#X obj 248 37 inlet;
#X text 120 15 freq;
#X text 248 19 wave select;
#X obj 122 104 phasor~;
#X obj 122 131 *~ 2048;
#X obj 122 154 tabread4~ osctable1;
#X obj 138 256 outlet~;
#N canvas 815 190 1045 734 osctab1 0;
#N canvas 0 22 450 278 (subpatch) 0;
#X array osctable1 2051 float 2;
#X coords 0 1 2051 -1 200 140 1 0 0;
#X restore 632 528 graph;
#X msg 175 300 \; osctable1 sinesum 2051 1 0.5 0.333333 0.25 0.2 0.166667
0.142857 0.125 0.111111 0.1 0.090909 0.0833333 0.076923;
#X msg 43 180 \; osctable1 normalize 1;
#X text 266 223 sinewave;
#X msg 174 380 \; osctable1 sinesum 2051 1 0 0.333333 0 0.2 0 0.142857
0 0.111111 0 0.090909 0 0.076923;
#X obj 119 36 inlet;
#X floatatom 120 78 5 0 0 0 - - -;
#X obj 189 180 sel 0 1 2 3;
#X obj 123 106 t b f;
#X msg 172 242 \; osctable1 sinesum 2051 1;
#X text 351 358 Square with 13 harmonics;
#X text 343 274 Sawtooth with 13 harmonics;
#X text 357 445 Triangle with 13 harmonics;
#X msg 176 467 \; osctable1 sinesum 2051 1 0 -0.111111 0 0.04 0 -0.0204082
0 0.0123457 0 -0.00826446 0 0.00591716;
#X connect 5 0 6 0;
#X connect 6 0 8 0;
#X connect 7 0 9 0;
#X connect 7 1 1 0;
#X connect 7 2 4 0;
#X connect 7 3 13 0;
#X connect 8 0 2 0;
#X connect 8 1 7 0;
#X restore 246 72 pd osctab1;
#X connect 0 0 4 0;
#X connect 1 0 8 0;
#X connect 4 0 5 0;
#X connect 5 0 6 0;
#X connect 6 0 7 0;
#X restore 121 375 pd osc1;
#X obj 175 305 hradio 15 1 0 4 empty empty sn/sw/sq/tr 0 -8 0 10 -262130
-1 -1 0;
#X floatatom 121 302 5 0 0 0 - - -;
#N canvas 0 23 1268 905 dbenv 1;
#X obj 134 176 outlet~;
#X obj 133 145 dbtorms~;
#X obj 133 124 +~ 40;
#X text 175 104 range in dB;
#X text 178 123 min in dB;
#X obj 132 103 *~ 60;
#X obj 132 75 inlet~;
#X connect 1 0 0 0;
#X connect 2 0 1 0;
#X connect 5 0 2 0;
#X connect 6 0 5 0;
#X restore 428 445 pd dbenv;
#X obj 428 396 LDadsr 50 200 0.7 500;
#X text 601 399 ENVELOPE;
#X text 44 328 OSCILLATOR;
#X text 121 441 FILTER;
#X obj 178 442 LDbiquadLPF 400 8;
#X obj 258 327 hsl 128 15 0 127 0 0 empty empty empty -2 -8 0 10 -262144
-1 -1 6600 1;
#X obj 255 351 mtof;
#X floatatom 255 373 5 0 0 0 - - -;
#X text 259 310 filter fc;
#X text 295 373 fc;
#X msg 255 393 \$1 50;
#X obj 255 414 line;
#X text 451 373 envelope gate (on/off);
#X obj 323 181 send note;
#X obj 119 231 receive note;
#X floatatom 119 252 5 0 0 0 - - -;
#X obj 407 158 sel 0 64;
#X obj 413 202 send on;
#X obj 387 272 receive on;
#X floatatom 121 347 5 0 0 0 - - -;
#X obj 121 325 + 350;
#X obj 578 140 sel 1 5 9 21 25 29;
#X msg 745 191 volume;
#X floatatom 690 318 5 0 0 0 - - -;
#X obj 631 179 bang;
#X floatatom 707 442 0 0 0 0 - - -;
#X obj 705 395 expr pow($i1 \, 2);
#X obj 683 527 s attack;
#X obj 445 330 r attack;
#X floatatom 844 269 5 0 0 0 - - -;
#X obj 689 192 bang;
#X floatatom 861 393 0 0 0 0 - - -;
#X obj 859 346 expr pow($i1 \, 2);
#X obj 837 478 s decay;
#X obj 510 332 r decay;
#X msg 493 204 set \$1;
#X msg 523 177 set \$1;
#X msg 815 78 other;
#X obj 396 304 tgl 15 0 empty empty empty 17 7 0 10 -262144 -1 -1 0
1;
#X obj 368 226 delay;
#X obj 409 244 r decay;
#X connect 0 0 1 0;
#X connect 0 1 1 1;
#X connect 1 0 2 0;
#X connect 3 0 45 0;
#X connect 4 0 5 0;
#X connect 4 1 3 0;
#X connect 4 2 6 0;
#X connect 5 0 42 0;
#X connect 8 0 50 0;
#X connect 9 0 65 0;
#X connect 9 0 64 0;
#X connect 11 0 9 0;
#X connect 11 1 8 0;
#X connect 11 2 10 0;
#X connect 19 0 18 0;
#X connect 19 0 18 1;
#X connect 19 0 20 0;
#X connect 19 0 21 0;
#X connect 22 0 19 0;
#X connect 23 0 28 0;
#X connect 24 0 27 0;
#X connect 25 0 33 0;
#X connect 26 0 25 1;
#X connect 27 0 49 0;
#X connect 28 0 22 1;
#X connect 29 0 23 0;
#X connect 33 0 22 0;
#X connect 34 0 35 0;
#X connect 35 0 36 0;
#X connect 36 0 39 0;
#X connect 39 0 40 0;
#X connect 40 0 33 1;
#X connect 43 0 44 0;
#X connect 44 0 24 0;
#X connect 45 0 68 0;
#X connect 45 1 46 0;
#X connect 47 0 67 0;
#X connect 48 0 25 0;
#X connect 49 0 48 0;
#X connect 50 3 53 0;
#X connect 50 4 59 0;
#X connect 50 5 51 0;
#X connect 50 6 66 0;
#X connect 52 0 55 0;
#X connect 53 0 52 0;
#X connect 53 0 55 0;
#X connect 53 0 64 0;
#X connect 54 0 56 0;
#X connect 55 0 54 0;
#X connect 57 0 29 1;
#X connect 58 0 61 0;
#X connect 59 0 58 0;
#X connect 59 0 61 0;
#X connect 59 0 65 0;
#X connect 60 0 62 0;
#X connect 61 0 60 0;
#X connect 63 0 29 2;
#X connect 64 0 52 0;
#X connect 65 0 58 0;
#X connect 67 0 29 0;
#X connect 68 0 46 0;
#X connect 69 0 68 1;
