#N canvas 20 24 1257 930 10;
#X obj 188 196 nbx 5 14 0 1e+37 0 0 empty empty empty 0 -8 0 10 -262144
-1 -1 4 256;
#X obj 246 196 nbx 5 14 0 1e+37 0 0 empty empty empty 0 -8 0 10 -262144
-1 -1 7225 256;
#X obj 118 162 bng 15 250 50 0 empty empty empty 17 7 0 10 -262144
-1 -1;
#X msg 116 288 4 7225 0.7;
#X obj 246 215 t b f;
#X obj 169 57 inlet;
#X obj 307 56 inlet;
#X obj 87 56 inlet;
#X obj 249 385 outlet;
#X text 165 40 attack time (ms);
#X text 303 37 decay time (ms);
#X obj 429 55 inlet;
#X obj 305 196 nbx 5 14 0 1 0 0 empty empty empty 0 -8 0 10 -262144
-1 -1 0.7 256;
#X obj 587 54 inlet;
#X text 587 36 release time (ms);
#X obj 188 237 pack f f f, f 24;
#X obj 305 215 t b f;
#X msg 188 258 set \$1 \$2 \$3;
#X text 22 38 note on(1)/off(0);
#X msg 116 315 1 \$1 \, \$3 \$2 \$1;
#X obj 438 197 nbx 5 14 0 1e+37 0 0 empty empty empty 0 -8 0 10 -262144
-1 -1 500 256;
#X msg 438 243 set \$1;
#X msg 419 275 500;
#X msg 419 307 0 \$1;
#X obj 419 196 bng 15 250 50 0 empty empty empty 17 7 0 10 -262144
-1 -1;
#X obj 86 119 sel 0;
#X text 427 37 sustain level [0 \, 1];
#X obj 169 117 f \$1;
#X obj 307 116 f \$2;
#X obj 429 114 f \$3;
#X obj 586 108 f \$4;
#X obj 358 76 loadbang;
#X connect 0 0 15 0;
#X connect 1 0 4 0;
#X connect 2 0 3 0;
#X connect 3 0 19 0;
#X connect 4 0 15 0;
#X connect 4 1 15 1;
#X connect 5 0 27 0;
#X connect 6 0 28 0;
#X connect 7 0 25 0;
#X connect 11 0 29 0;
#X connect 12 0 16 0;
#X connect 13 0 30 0;
#X connect 15 0 17 0;
#X connect 16 0 15 0;
#X connect 16 1 15 2;
#X connect 17 0 3 0;
#X connect 19 0 8 0;
#X connect 20 0 21 0;
#X connect 21 0 22 0;
#X connect 22 0 23 0;
#X connect 23 0 8 0;
#X connect 24 0 22 0;
#X connect 25 0 24 0;
#X connect 25 1 2 0;
#X connect 27 0 0 0;
#X connect 28 0 1 0;
#X connect 29 0 12 0;
#X connect 30 0 20 0;
#X connect 31 0 30 0;
#X connect 31 0 29 0;
#X connect 31 0 28 0;
#X connect 31 0 27 0;
