#N canvas 0 54 1038 824 10;
#X obj 31 32 inlet~;
#X obj 314 22 inlet;
#X obj 572 26 inlet;
#X text 307 4 cutoff freq (Hz);
#X text 27 16 audio in;
#X text 351 147 fc;
#X obj 373 163 samplerate~;
#X text 295 257 K;
#X obj 314 304 *;
#X text 285 329 K^2;
#X obj 604 134 f;
#X obj 314 257 f;
#X obj 314 329 f;
#X text 638 134 Q;
#X obj 314 441 f;
#X obj 314 138 f;
#X obj 572 102 t b f;
#X obj 314 233 expr tan(3.14159265358979323*$f1/$f2);
#X obj 314 416 expr 1.0/($f1*$f3 + $f2 + $f3);
#X text 336 441 1/D (where D = K*K*Q + K + Q);
#X obj 550 414 expr -1.0*($f1*$f3 - $f2 + $f3);
#X obj 532 531 f;
#X obj 532 508 *;
#X text 560 532 fb2;
#X obj 314 498 expr $f1*$f2*$f3;
#X obj 314 525 f;
#X text 342 526 ff1 & ff3;
#X obj 316 580 f;
#X obj 314 552 * 2;
#X text 343 581 ff2;
#X text 258 499 Ksq*Q/D;
#X obj 75 513 *;
#X obj 75 538 f;
#X text 104 536 fb1;
#X obj 314 282 t f f f f;
#X obj 314 351 t f f f f;
#X obj 93 420 expr 2.0*$f2*(1.0-$f1);
#X obj 586 207 t f f f f;
#X text 103 440 2*Q*(1-Ksq);
#X obj 167 677 pack 1 1 1 1 1;
#X obj 28 723 biquad~;
#X obj 28 775 outlet~;
#X text 571 7 Q;
#X obj 315 53 f \$1;
#X obj 572 53 f \$2;
#X obj 466 9 loadbang;
#X obj 466 31 t b b;
#X text 316 670 LDbiquadLPF implements a 2-pole \, 2-zero Low Pass
Filter with Resonance \, based on equations from Zolzer. Luke Dahl
2016;
#X obj 315 98 t f b;
#X obj 314 160 t f b;
#X obj 370 211 * 0.49;
#X obj 314 193 min;
#X obj 373 185 t f f;
#X text 171 194 limit fc < nyquist;
#X text 318 730 To map from Matlab Filter Coeffs to [biquad~]'s \,
use: ff1 = b0 \, ff2 = b1 \, ff3 = b2 \, fb1 = -a1 \, fb2 = -a2;
#X obj 315 76 max 5;
#X text 171 77 limit fc > 5 Hz;
#X obj 572 76 max 1;
#X text 628 76 limit q >= 1;
#X connect 0 0 40 0;
#X connect 1 0 43 0;
#X connect 2 0 44 0;
#X connect 6 0 52 0;
#X connect 8 0 12 0;
#X connect 10 0 37 0;
#X connect 11 0 34 0;
#X connect 12 0 35 0;
#X connect 14 0 24 0;
#X connect 14 0 31 0;
#X connect 15 0 49 0;
#X connect 16 0 15 0;
#X connect 16 1 10 0;
#X connect 17 0 11 0;
#X connect 18 0 22 0;
#X connect 18 0 14 0;
#X connect 20 0 22 1;
#X connect 21 0 39 1;
#X connect 22 0 21 0;
#X connect 24 0 25 0;
#X connect 25 0 28 0;
#X connect 25 0 39 2;
#X connect 25 0 39 4;
#X connect 27 0 39 3;
#X connect 28 0 27 0;
#X connect 31 0 32 0;
#X connect 32 0 39 0;
#X connect 34 0 8 0;
#X connect 34 1 8 1;
#X connect 34 2 18 1;
#X connect 34 3 20 1;
#X connect 35 0 18 0;
#X connect 35 1 36 0;
#X connect 35 2 24 1;
#X connect 35 3 20 0;
#X connect 36 0 31 1;
#X connect 37 0 36 1;
#X connect 37 1 24 2;
#X connect 37 2 18 2;
#X connect 37 3 20 2;
#X connect 39 0 40 0;
#X connect 40 0 41 0;
#X connect 43 0 55 0;
#X connect 44 0 57 0;
#X connect 45 0 46 0;
#X connect 46 0 43 0;
#X connect 46 1 44 0;
#X connect 48 0 15 0;
#X connect 48 1 10 0;
#X connect 49 0 51 0;
#X connect 49 1 6 0;
#X connect 50 0 51 1;
#X connect 51 0 17 0;
#X connect 52 0 50 0;
#X connect 52 1 17 1;
#X connect 55 0 48 0;
#X connect 57 0 16 0;
